<?xml version="1.0" encoding="UTF-8" standalone="no"?>
<!-- Created with Inkscape (http://www.inkscape.org/) -->

<svg
   xmlns:dc="http://purl.org/dc/elements/1.1/"
   xmlns:cc="http://creativecommons.org/ns#"
   xmlns:rdf="http://www.w3.org/1999/02/22-rdf-syntax-ns#"
   xmlns:svg="http://www.w3.org/2000/svg"
   xmlns="http://www.w3.org/2000/svg"
   xmlns:xlink="http://www.w3.org/1999/xlink"
   xmlns:sodipodi="http://sodipodi.sourceforge.net/DTD/sodipodi-0.dtd"
   xmlns:inkscape="http://www.inkscape.org/namespaces/inkscape"
   width="85.973351mm"
   height="117.81494mm"
   viewBox="0 0 85.973349 117.81494"
   version="1.1"
   id="svg8"
   sodipodi:docname="ritchiecodes-white-logo.svg"
   inkscape:version="0.92.3 (2405546, 2018-03-11)">
  <defs
     id="defs2">
    <linearGradient
       id="linearGradient844"
       inkscape:collect="always">
      <stop
         id="stop840"
         offset="0"
         style="stop-color:#ffffff;stop-opacity:1" />
      <stop
         id="stop842"
         offset="1"
         style="stop-color:#e6e6e6;stop-opacity:1" />
    </linearGradient>
    <linearGradient
       inkscape:collect="always"
       xlink:href="#linearGradient844"
       id="linearGradient5004"
       x1="214.80078"
       y1="644.51172"
       x2="477"
       y2="644.51172"
       gradientUnits="userSpaceOnUse"
       gradientTransform="matrix(0.26458333,0,0,0.26458333,11.969822,-28.428326)" />
    <linearGradient
       inkscape:collect="always"
       xlink:href="#linearGradient844"
       id="linearGradient5012"
       x1="537.33691"
       y1="634.41431"
       x2="214.88144"
       y2="632.53357"
       gradientUnits="userSpaceOnUse"
       gradientTransform="matrix(0.26458333,0,0,0.26458333,11.969822,-28.428326)" />
  </defs>
  <sodipodi:namedview
     id="base"
     pagecolor="#ffffff"
     bordercolor="#666666"
     borderopacity="1.0"
     inkscape:pageopacity="0.0"
     inkscape:pageshadow="2"
     inkscape:zoom="1.5004829"
     inkscape:cx="-7.3309746"
     inkscape:cy="189.60563"
     inkscape:document-units="px"
     inkscape:current-layer="layer1"
     showgrid="false"
     showborder="true"
     inkscape:snap-others="true"
     inkscape:object-paths="true"
     inkscape:snap-intersection-paths="true"
     inkscape:snap-smooth-nodes="true"
     showguides="false"
     inkscape:window-width="2880"
     inkscape:window-height="1675"
     inkscape:window-x="-13"
     inkscape:window-y="-13"
     inkscape:window-maximized="1"
     inkscape:showpageshadow="2"
     inkscape:pagecheckerboard="0"
     inkscape:deskcolor="#d1d1d1" />
  <metadata
     id="metadata5">
    <rdf:RDF>
      <cc:Work
         rdf:about="">
        <dc:format>image/svg+xml</dc:format>
        <dc:type
           rdf:resource="http://purl.org/dc/dcmitype/StillImage" />
        <dc:title />
      </cc:Work>
    </rdf:RDF>
  </metadata>
  <g
     inkscape:label="Layer 1"
     inkscape:groupmode="layer"
     id="layer1"
     style="display:inline"
     transform="translate(-68.416862,-83.052428)">
    <path
       style="display:inline;opacity:1;fill:url(#linearGradient5012);fill-opacity:1.0;stroke-width:0.320061"
       d="m 108.54274,83.363298 a 39.687502,39.687502 0 0 0 -39.687502,39.687492 39.687502,39.687502 0 0 0 19.843749,34.31315 v 0.0424 l 37.490743,37.49125 c 7.77359,7.77354 20.2904,7.77355 28.06392,0 -13.16203,-13.16203 -23.93634,-23.9504 -33.92196,-33.954 a 39.687502,39.687502 0 0 0 27.89855,-37.89278 39.687502,39.687502 0 0 0 -39.6875,-39.687492 z m 0,19.843742 a 19.843751,19.843751 0 0 1 19.84375,19.84375 19.843751,19.843751 0 0 1 -19.84375,19.84375 19.843751,19.843751 0 0 1 -19.843753,-19.84375 19.843751,19.843751 0 0 1 19.843753,-19.84375 z"
       id="path4520" />
    <path
       style="display:inline;opacity:1;fill:url(#linearGradient5004);fill-opacity:1.0;stroke-width:0.238979"
       d="M 107.93348,83.393789 A 39.687502,39.687502 0 0 0 68.859889,122.89008 c -0.0168,-5.3e-4 -0.04069,-5.3e-4 -0.05736,-10e-4 0.03188,20.61397 0.05271,45.74516 0.05271,77.91465 10.993437,0 19.843749,-8.85031 19.843749,-19.84375 v -57.90913 a 19.84375,19.84375 0 0 1 19.843752,-19.84375 19.84375,19.84375 0 0 1 19.84375,19.84375 19.84375,19.84375 0 0 1 -17.86144,19.74453 29.63333,29.63333 0 0 0 27.65103,-29.53411 29.63333,29.63333 0 0 0 -29.63334,-29.633329 29.63333,29.63333 0 0 0 -0.60461,0.02997 z"
       id="path4940" />
  </g>
</svg>
